<svg width="86" height="86" viewBox="0 0 86 86" fill="none" xmlns="http://www.w3.org/2000/svg">
<path d="M0.199219 30.0841C0.199219 14.9992 0.199219 9.5718 4.88551 4.88551C9.5718 0.199219 14.9992 0.199219 32.1992 0.199219H53.7992C70.9992 0.199219 76.4266 0.199219 81.1129 4.88551C85.7992 9.5718 85.7992 14.9992 85.7992 32.1992V53.7992C85.7992 70.9992 85.7992 76.4266 81.1129 81.1129C76.4266 85.7992 70.9992 85.7992 53.7992 85.7992H32.1992C14.9992 85.7992 9.5718 85.7992 4.88551 81.1129C0.199219 76.4266 0.199219 70.9992 0.199219 53.7992V30.0841Z" fill="url(#paint0_radial_2853_60039)"/>
<path d="M14.5245 70.4941L14.5245 43.4942H0V42.4942H14.5245L14.5245 15.4942H0.331448C0.363292 15.1516 0.398195 14.8184 0.436451 14.4942H14.5245L14.5245 0.472234C14.8483 0.434168 15.1814 0.399171 15.5245 0.366994V14.4942H39.0925L38.5152 15.4942H15.5245L15.5245 42.4942H22.9267L22.3494 43.4942H15.5245L15.5245 55.3154C15.1518 55.9728 15.1977 56.7092 15.5245 57.2861L15.5245 70.4941H38.8457L39.4461 71.4941H15.5245V85.233C15.1814 85.2008 14.8483 85.1658 14.5245 85.1278L14.5245 71.4941H0.523843C0.482041 71.1706 0.443575 70.8374 0.408178 70.4941H14.5245Z" fill="url(#paint1_radial_2853_60039)"/>
<path d="M42.5245 76.164V85.6H43.5245V75.9547C43.2503 76.208 42.8617 76.2777 42.5245 76.164Z" fill="url(#paint2_radial_2853_60039)"/>
<path d="M46.2495 71.4941H70.5245V85.1887C70.8678 85.153 71.2009 85.1143 71.5245 85.0722V71.4941H85.0762C85.118 71.1706 85.1564 70.8374 85.1918 70.4941H71.5245V43.4942H85.6V42.4942H71.5245L71.5245 15.4942H85.2301C85.1977 15.1511 85.1625 14.8179 85.1242 14.4942H71.5245V0.527771C71.2009 0.485685 70.8678 0.446955 70.5245 0.411314V14.4942H46.5327L47.1101 15.4942H70.5245L70.5245 42.4942H62.6985L63.2759 43.4942H70.5245V70.4941H46.85L46.2495 71.4941Z" fill="url(#paint3_radial_2853_60039)"/>
<path d="M43.5245 10.1796V0H42.5245V10.0712C42.8596 10.0234 43.2051 10.0595 43.5245 10.1796Z" fill="url(#paint4_radial_2853_60039)"/>
<path d="M69.7081 57.8281C70.6357 57.8281 71.2125 56.8207 70.7431 56.0208L43.8835 10.2489C43.4198 9.45869 42.2773 9.45869 41.8136 10.2489L14.954 56.0208C14.4845 56.8207 15.0614 57.8281 15.9889 57.8281H30.3507C30.7721 57.8281 31.1626 58.0491 31.3795 58.4104L41.8197 75.7979C42.2859 76.5743 43.4112 76.5743 43.8773 75.7979L54.3176 58.4104C54.5345 58.0491 54.925 57.8281 55.3464 57.8281H69.7081Z" fill="url(#paint5_radial_2853_60039)"/>
<g filter="url(#filter0_i_2853_60039)">
<path d="M69.7081 57.8281C70.6357 57.8281 71.2125 56.8207 70.7431 56.0208L43.8835 10.2489C43.4198 9.45869 42.2773 9.45869 41.8136 10.2489L14.954 56.0208C14.4845 56.8207 15.0614 57.8281 15.9889 57.8281H30.3507C30.7721 57.8281 31.1626 58.0491 31.3795 58.4104L41.8197 75.7979C42.2859 76.5743 43.4112 76.5743 43.8773 75.7979L54.3176 58.4104C54.5345 58.0491 54.925 57.8281 55.3464 57.8281H69.7081Z" fill="white" fill-opacity="0.01"/>
</g>
<path d="M67.0706 51.1235C66.9358 50.8948 66.6901 50.7544 66.4246 50.7544H65.4606L65.6587 50.4189C65.9669 49.8972 65.9672 49.252 65.6594 48.73L62.9777 44.1816C62.8429 43.953 62.5973 43.8126 62.3319 43.8125C62.0665 43.8124 61.8208 43.9525 61.6859 44.181L57.803 50.7544H57.6929L61.7785 43.8378C62.0867 43.316 62.087 42.6709 61.7792 42.1488L59.0974 37.6004C58.9626 37.3718 58.7171 37.2314 58.4517 37.2313C58.1863 37.2312 57.9406 37.3714 57.8056 37.5999L42.8834 62.8618L42.8284 62.7686L57.8982 37.2566C58.2065 36.7349 58.2067 36.0897 57.8989 35.5677L55.2172 31.0193C55.0824 30.7906 54.8368 30.6503 54.5714 30.6502C54.306 30.6501 54.0604 30.7902 53.9254 31.0187L38.9996 56.2868L38.9445 56.1935L54.018 30.6755L53.3723 30.294L54.018 30.6755C54.3262 30.1537 54.3265 29.5086 54.0187 28.9865L51.337 24.4381C51.2022 24.2095 50.9566 24.0691 50.6912 24.069C50.4258 24.0689 50.1801 24.2091 50.0451 24.4376L34.4998 50.7544H34.3897L50.1378 24.0943C50.446 23.5726 50.4463 22.9274 50.1385 22.4054L47.4567 17.857C47.3219 17.6283 47.0764 17.488 46.811 17.4879C46.5456 17.4878 46.2999 17.6279 46.1649 17.8564L26.7321 50.7544H26.622L46.2575 17.5132C46.5657 16.9914 46.566 16.3462 46.2582 15.8242L43.5727 11.2695C43.4379 11.0408 43.1922 10.9004 42.9267 10.9004C42.6612 10.9004 42.4154 11.0408 42.2806 11.2695L15.8305 56.1306C15.6938 56.3625 15.6918 56.6498 15.8253 56.8835C15.9588 57.1173 16.2073 57.2615 16.4765 57.2616L31.9219 57.2631L42.2393 74.7295C42.3742 74.9579 42.6197 75.098 42.885 75.098C43.1503 75.098 43.3958 74.9579 43.5308 74.7295L53.8501 57.2631L69.3777 57.2631C69.6469 57.2631 69.8954 57.1189 70.0289 56.8851C70.1624 56.6514 70.1605 56.3641 70.0238 56.1322L67.0706 51.1235Z" stroke="url(#paint6_radial_2853_60039)" stroke-width="1.5" stroke-linejoin="round"/>
<defs>
<filter id="filter0_i_2853_60039" x="14.7871" y="9.65625" width="56.123" height="66.7246" filterUnits="userSpaceOnUse" color-interpolation-filters="sRGB">
<feFlood flood-opacity="0" result="BackgroundImageFix"/>
<feBlend mode="normal" in="SourceGraphic" in2="BackgroundImageFix" result="shape"/>
<feColorMatrix in="SourceAlpha" type="matrix" values="0 0 0 0 0 0 0 0 0 0 0 0 0 0 0 0 0 0 127 0" result="hardAlpha"/>
<feOffset/>
<feGaussianBlur stdDeviation="6"/>
<feComposite in2="hardAlpha" operator="arithmetic" k2="-1" k3="1"/>
<feColorMatrix type="matrix" values="0 0 0 0 1 0 0 0 0 1 0 0 0 0 1 0 0 0 0.79 0"/>
<feBlend mode="normal" in2="shape" result="effect1_innerShadow_2853_60039"/>
</filter>
<radialGradient id="paint0_radial_2853_60039" cx="0" cy="0" r="1" gradientUnits="userSpaceOnUse" gradientTransform="translate(43 0.999998) rotate(90.3494) scale(82.0015 82.0013)">
<stop stop-color="#10FFD4"/>
<stop offset="0.9375" stop-color="#047C95"/>
</radialGradient>
<radialGradient id="paint1_radial_2853_60039" cx="0" cy="0" r="1" gradientUnits="userSpaceOnUse" gradientTransform="translate(42.3008 0.300784) rotate(90) scale(83.5 83.4998)">
<stop offset="0.473958" stop-color="white" stop-opacity="0.16"/>
<stop offset="1" stop-color="white" stop-opacity="0.04"/>
</radialGradient>
<radialGradient id="paint2_radial_2853_60039" cx="0" cy="0" r="1" gradientUnits="userSpaceOnUse" gradientTransform="translate(42.3008 0.300784) rotate(90) scale(83.5 83.4998)">
<stop offset="0.473958" stop-color="white" stop-opacity="0.16"/>
<stop offset="1" stop-color="white" stop-opacity="0.04"/>
</radialGradient>
<radialGradient id="paint3_radial_2853_60039" cx="0" cy="0" r="1" gradientUnits="userSpaceOnUse" gradientTransform="translate(42.3008 0.300784) rotate(90) scale(83.5 83.4998)">
<stop offset="0.473958" stop-color="white" stop-opacity="0.16"/>
<stop offset="1" stop-color="white" stop-opacity="0.04"/>
</radialGradient>
<radialGradient id="paint4_radial_2853_60039" cx="0" cy="0" r="1" gradientUnits="userSpaceOnUse" gradientTransform="translate(42.3008 0.300784) rotate(90) scale(83.5 83.4998)">
<stop offset="0.473958" stop-color="white" stop-opacity="0.16"/>
<stop offset="1" stop-color="white" stop-opacity="0.04"/>
</radialGradient>
<radialGradient id="paint5_radial_2853_60039" cx="0" cy="0" r="1" gradientUnits="userSpaceOnUse" gradientTransform="translate(43.12 7.33528) rotate(88.8953) scale(71.0013 59.6944)">
<stop stop-color="white"/>
<stop offset="0.796875" stop-color="white" stop-opacity="0.04"/>
</radialGradient>
<radialGradient id="paint6_radial_2853_60039" cx="0" cy="0" r="1" gradientUnits="userSpaceOnUse" gradientTransform="translate(42.9271 23.8491) rotate(90) scale(57.2281 48.2862)">
<stop stop-color="white"/>
<stop offset="0.640625" stop-color="white" stop-opacity="0"/>
</radialGradient>
</defs>
</svg>
